<svg xmlns="http://www.w3.org/2000/svg" viewBox="0 0 1770 1520" width="1770" height="1520" font-family="Helvetica,'PingFang SC','Microsoft YaHei',sans-serif">
  <defs>
    <filter id="sh" x="-5%" y="-5%" width="110%" height="110%">
      <feDropShadow dx="0" dy="1.5" stdDeviation="1.5" flood-color="#000" flood-opacity="0.12"/>
    </filter>
    <marker id="ag" markerWidth="8" markerHeight="8" refX="7" refY="4" orient="auto"><path d="M0,0 L8,4 L0,8 z" fill="#9CA3AF"/></marker>
    <marker id="ap" markerWidth="8" markerHeight="8" refX="7" refY="4" orient="auto"><path d="M0,0 L8,4 L0,8 z" fill="#7C3AED"/></marker>
    <marker id="ag2" markerWidth="8" markerHeight="8" refX="7" refY="4" orient="auto"><path d="M0,0 L8,4 L0,8 z" fill="#16A34A"/></marker>
    <marker id="ao" markerWidth="8" markerHeight="8" refX="7" refY="4" orient="auto"><path d="M0,0 L8,4 L0,8 z" fill="#EA580C"/></marker>
  </defs>

  <rect width="1770" height="1520" fill="#FFFFFF"/>

  <!-- Title -->
  <text x="885" y="48" text-anchor="middle" font-size="33.0" font-weight="700" fill="#0F172A">WanderInk（漫游墨绘）系统架构图</text>
  <text x="885" y="78" text-anchor="middle" font-size="18.0" fill="#6B7280">景区名称进，有声连环画出</text>

  <!-- ===== USER LAYER (y:80-190) ===== -->
  <rect x="60" y="120" width="1560" height="165" rx="15" fill="#EAF3FF" stroke="#BFDBFE"/>
  <text x="81" y="150" font-size="19.5" font-weight="700" fill="#1E3A8A">用户层 · User Layer</text>

  <circle cx="135" cy="207" r="21" fill="#3B82F6"/><circle cx="135" cy="199.5" r="7.5" fill="#FFF"/><path d="M122,218 Q135,210 148,218 L148,224 L122,224 Z" fill="#FFF"/>
  <text x="135" y="264" text-anchor="middle" font-size="15.0" fill="#1E3A8A">用户</text>
  <line x1="168" y1="207" x2="207" y2="207" stroke="#9CA3AF" stroke-width="1.5" marker-end="url(#ag)"/>

  <g filter="url(#sh)"><rect x="213" y="165" width="262.5" height="108" rx="12" fill="#FFF" stroke="#93C5FD"/><rect x="213" y="165" width="262.5" height="27" rx="12" fill="#3B82F6"/><text x="228" y="184.5" font-size="16.5" font-weight="700" fill="#FFF">Web 工作台</text><text x="345" y="213" text-anchor="middle" font-size="13.5" fill="#1F2937">React + Ant Design</text><text x="228" y="234" font-size="13.5" fill="#1F2937">· 项目管理（新建/队列/详情）</text><text x="228" y="252" font-size="13.5" fill="#1F2937">· 配置管理（端点/模型/密钥）</text><text x="228" y="270" font-size="13.5" fill="#1F2937">· 进度监控（每步耗时/页数计数）</text></g>
  <line x1="475.5" y1="219" x2="505.5" y2="219" stroke="#9CA3AF" marker-end="url(#ag)"/>

  <g filter="url(#sh)"><rect x="511.5" y="165" width="262.5" height="108" rx="12" fill="#FFF" stroke="#93C5FD"/><rect x="511.5" y="165" width="262.5" height="27" rx="12" fill="#3B82F6"/><text x="526.5" y="184.5" font-size="16.5" font-weight="700" fill="#FFF">分步可干预创作</text><text x="643.5" y="213" text-anchor="middle" font-size="13.5" fill="#1F2937">Human-in-the-loop</text><text x="526.5" y="234" font-size="13.5" fill="#1F2937">· 预览与审核（传说/剧本/分镜）</text><text x="526.5" y="252" font-size="13.5" fill="#1F2937">· 编辑与修改（文案/画面/角色）</text><text x="526.5" y="270" font-size="13.5" fill="#1F2937">· 重绘与重配（单页/单步重跑）</text></g>
  <line x1="774" y1="219" x2="804" y2="219" stroke="#9CA3AF" marker-end="url(#ag)"/>

  <g filter="url(#sh)"><rect x="810" y="165" width="262.5" height="108" rx="12" fill="#FFF" stroke="#93C5FD"/><rect x="810" y="165" width="262.5" height="27" rx="12" fill="#3B82F6"/><text x="825" y="184.5" font-size="16.5" font-weight="700" fill="#FFF">输出与分享</text><text x="942" y="213" text-anchor="middle" font-size="13.5" fill="#1F2937">Export &amp; Share</text><text x="825" y="234" font-size="13.5" fill="#1F2937">· 在线预览（MP4 播放器）</text><text x="825" y="252" font-size="13.5" fill="#1F2937">· 下载 MP4 / PDF / 图片包 ZIP</text><text x="825" y="270" font-size="13.5" fill="#1F2937">· 分享链接</text></g>
  <line x1="1072.5" y1="219" x2="1102.5" y2="219" stroke="#9CA3AF" marker-end="url(#ag)"/>

  <g filter="url(#sh)"><rect x="1108.5" y="165" width="262.5" height="108" rx="12" fill="#FFF" stroke="#93C5FD"/><rect x="1108.5" y="165" width="262.5" height="27" rx="12" fill="#3B82F6"/><text x="1123.5" y="184.5" font-size="16.5" font-weight="700" fill="#FFF">多用户与队列</text><text x="1240.5" y="213" text-anchor="middle" font-size="13.5" fill="#1F2937">Multi-user</text><text x="1123.5" y="234" font-size="13.5" fill="#1F2937">· Cookie session 登录</text><text x="1123.5" y="252" font-size="13.5" fill="#1F2937">· 归属可见 · 取消自己的任务</text><text x="1123.5" y="270" font-size="13.5" fill="#1F2937">· 生成队列实时展示（全局）</text></g>
  <line x1="1371" y1="219" x2="1401" y2="219" stroke="#9CA3AF" marker-end="url(#ag)"/>

  <g filter="url(#sh)"><rect x="1407" y="165" width="202.5" height="108" rx="12" fill="#FFF" stroke="#93C5FD"/><rect x="1407" y="165" width="202.5" height="27" rx="12" fill="#1E40AF"/><text x="1422" y="184.5" font-size="16.5" font-weight="700" fill="#FFF">CLI 入口</text><text x="1594.5" y="184.5" text-anchor="end" font-size="12.0" fill="#DBEAFE">CLI</text><text x="1422" y="213" font-size="13.5" fill="#1F2937">shanhai (Typer CLI)</text><text x="1422" y="234" font-size="13.5" fill="#1F2937">· new / pick / step</text><text x="1422" y="252" font-size="13.5" fill="#1F2937">· run / status</text><text x="1422" y="270" font-size="13.5" fill="#1F2937">· 同套 steps/* 与 provider</text></g>

  <!-- ===== PIPELINE LAYER (y:210-320) ===== -->
  <rect x="60" y="315" width="1305" height="165" rx="15" fill="#FEF9C3" stroke="#FDE68A"/>
  <text x="81" y="345" font-size="19.5" font-weight="700" fill="#854D0E">编排层 · Supervisor（FastAPI）任务编排 / 状态管理 / 断点续跑 / 日志监控</text>

  <g filter="url(#sh)"><rect x="78" y="366" width="168" height="102" rx="9" fill="#FFF" stroke="#FCD34D"/><rect x="78" y="366" width="168" height="24" rx="9" fill="#EAB308"/><text x="162" y="384" text-anchor="middle" font-size="15.0" font-weight="700" fill="#FFF">S0 传说检索与甄别</text><circle cx="162" cy="417" r="10.5" fill="none" stroke="#EAB308" stroke-width="2.25"/><line x1="171" y1="426" x2="178.5" y2="433.5" stroke="#EAB308" stroke-width="2.25"/><text x="162" y="453" text-anchor="middle" font-size="12.0" fill="#1F2937">2-5条候选传说</text><text x="162" y="465" text-anchor="middle" font-size="12.0" fill="#1F2937">及来源标注</text></g>
  <polygon points="246,411 258,417 246,423" fill="#EA580C"/>
  <g filter="url(#sh)"><rect x="258" y="366" width="168" height="102" rx="9" fill="#FFF" stroke="#FCD34D"/><rect x="258" y="366" width="168" height="24" rx="9" fill="#EAB308"/><text x="342" y="384" text-anchor="middle" font-size="15.0" font-weight="700" fill="#FFF">S1 剧本改编</text><rect x="324" y="405" width="36" height="24" fill="none" stroke="#EAB308" stroke-width="1.8"/><line x1="330" y1="412.5" x2="354" y2="412.5" stroke="#EAB308" stroke-width="1.2"/><line x1="330" y1="420" x2="351" y2="420" stroke="#EAB308" stroke-width="1.2"/><text x="342" y="453" text-anchor="middle" font-size="12.0" fill="#1F2937">结构化剧本</text><text x="342" y="465" text-anchor="middle" font-size="12.0" fill="#1F2937">（幕/场/对白/旁白）</text></g>
  <polygon points="426,411 438,417 426,423" fill="#EA580C"/>
  <g filter="url(#sh)"><rect x="438" y="366" width="168" height="102" rx="9" fill="#FFF" stroke="#FCD34D"/><rect x="438" y="366" width="168" height="24" rx="9" fill="#EAB308"/><text x="522" y="384" text-anchor="middle" font-size="15.0" font-weight="700" fill="#FFF">S2 分镜设计</text><g transform="translate(495,405)"><rect x="0" y="0" width="9" height="24" fill="none" stroke="#EAB308" stroke-width="1.2"/><rect x="12" y="0" width="9" height="24" fill="none" stroke="#EAB308" stroke-width="1.2"/><rect x="24" y="0" width="9" height="24" fill="none" stroke="#EAB308" stroke-width="1.2"/><rect x="36" y="0" width="9" height="24" fill="none" stroke="#EAB308" stroke-width="1.2"/></g><text x="522" y="453" text-anchor="middle" font-size="12.0" fill="#1F2937">分页分镜表</text><text x="522" y="465" text-anchor="middle" font-size="12.0" fill="#1F2937">（画面/情绪/文案）</text></g>
  <polygon points="606,411 618,417 606,423" fill="#EA580C"/>
  <g filter="url(#sh)"><rect x="618" y="366" width="168" height="102" rx="9" fill="#FFF" stroke="#FCD34D"/><rect x="618" y="366" width="168" height="24" rx="9" fill="#EAB308"/><text x="702" y="384" text-anchor="middle" font-size="15.0" font-weight="700" fill="#FFF">S3 角色设定</text><circle cx="702" cy="412" r="6" fill="#EAB308"/><path d="M690,422 Q702,416 714,422 L714,428 L690,428 Z" fill="#EAB308"/><text x="702" y="453" text-anchor="middle" font-size="12.0" fill="#1F2937">角色卡 + 三视图</text><text x="702" y="465" text-anchor="middle" font-size="12.0" fill="#1F2937">（正/侧/背）</text></g>
  <polygon points="786,411 798,417 786,423" fill="#EA580C"/>
  <g filter="url(#sh)"><rect x="798" y="366" width="168" height="102" rx="9" fill="#FFF" stroke="#FCD34D"/><rect x="798" y="366" width="168" height="24" rx="9" fill="#EAB308"/><text x="882" y="384" text-anchor="middle" font-size="15.0" font-weight="700" fill="#FFF">S4 连环画生成</text><rect x="858" y="405" width="48" height="24" fill="none" stroke="#EAB308" stroke-width="1.5"/><circle cx="892" cy="412" r="2.25" fill="#EAB308"/><path d="M862,424 L872,412 L880,418 L892,408 L902,424" fill="none" stroke="#EAB308" stroke-width="1.5"/><text x="882" y="453" text-anchor="middle" font-size="12.0" fill="#1F2937">逐页 1920×1080</text><text x="882" y="465" text-anchor="middle" font-size="12.0" fill="#1F2937">漫画画面</text></g>
  <polygon points="966,411 978,417 966,423" fill="#EA580C"/>
  <g filter="url(#sh)"><rect x="978" y="366" width="168" height="102" rx="9" fill="#FFF" stroke="#FCD34D"/><rect x="978" y="366" width="168" height="24" rx="9" fill="#EAB308"/><text x="1062" y="384" text-anchor="middle" font-size="15.0" font-weight="700" fill="#FFF">S5 配音配乐</text><rect x="1057" y="406" width="10" height="14" rx="4" fill="#EAB308"/><line x1="1062" y1="420" x2="1062" y2="426" stroke="#EAB308" stroke-width="1.8"/><path d="M1054,422 Q1062,430 1070,422" fill="none" stroke="#EAB308" stroke-width="1.5"/><text x="1062" y="453" text-anchor="middle" font-size="12.0" fill="#1F2937">逐页解说音频</text><text x="1062" y="465" text-anchor="middle" font-size="12.0" fill="#1F2937">+ BGM</text></g>
  <polygon points="1146,411 1158,417 1146,423" fill="#EA580C"/>
  <g filter="url(#sh)"><rect x="1158" y="366" width="192" height="102" rx="9" fill="#FFF" stroke="#FB923C"/><rect x="1158" y="366" width="192" height="24" rx="9" fill="#EA580C"/><text x="1254" y="384" text-anchor="middle" font-size="15.0" font-weight="700" fill="#FFF">S6 合成输出</text><rect x="1230" y="405" width="48" height="24" rx="3" fill="none" stroke="#EA580C" stroke-width="1.5"/><line x1="1236" y1="417" x2="1272" y2="417" stroke="#EA580C" stroke-width="1.2"/><line x1="1236" y1="424.5" x2="1269" y2="424.5" stroke="#EA580C" stroke-width="1.2"/><text x="1254" y="453" text-anchor="middle" font-size="12.0" fill="#1F2937">字幕/水印/片尾</text><text x="1254" y="465" text-anchor="middle" font-size="12.0" fill="#1F2937">MP4 成片</text></g>

  <!-- Right config panel (y:210-330) -->
  <rect x="1380" y="315" width="240" height="360" rx="15" fill="#EFF6FF" stroke="#BFDBFE"/>
  <text x="1401" y="345" font-size="18.0" font-weight="700" fill="#1E3A8A">配置管理（Web UI）</text>
  <g filter="url(#sh)"><circle cx="1500" cy="378" r="16.5" fill="#3B82F6"/><text x="1500" y="385.5" text-anchor="middle" font-size="18.0" font-weight="700" fill="#FFF">⚙</text></g>
  <text x="1401" y="423" font-size="15.0" fill="#1F2937">· 全局默认配置</text>
  <text x="1401" y="444" font-size="15.0" fill="#1F2937">· S0-S5 按环节覆盖</text>
  <text x="1401" y="465" font-size="15.0" fill="#1F2937">· 端点/模型/密钥</text>
  <text x="1401" y="486" font-size="15.0" fill="#1F2937">· 即时生效</text>
  <g filter="url(#sh)"><circle cx="1500" cy="531" r="16.5" fill="#3B82F6"/><path d="M1492,531 L1508,531 M1500,523 L1500,539" stroke="#FFF" stroke-width="2.25"/></g>
  <text x="1401" y="576" font-size="18.0" font-weight="700" fill="#1E3A8A">日志与监控</text>
  <text x="1401" y="603" font-size="15.0" fill="#1F2937">· 实时进度</text>
  <text x="1401" y="624" font-size="15.0" fill="#1F2937">· 步骤日志</text>
  <text x="1401" y="645" font-size="15.0" fill="#1F2937">· 性能监控</text>

  <!-- ===== PROJECT DATA CORE (y:340-450) ===== -->
  <rect x="60" y="510" width="1305" height="165" rx="15" fill="#F3F4F6" stroke="#D1D5DB"/>
  <text x="81" y="540" font-size="19.5" font-weight="700" fill="#1F2937">Project 聚合根 · 唯一事实源</text>
  <text x="81" y="561" font-size="15.0" fill="#6B7280">projects/&lt;id&gt;/project.json</text>

  <!-- 7 data fields: y=382 height=58, bottom=440 (容器结束 450) -->
  <g filter="url(#sh)"><rect x="78" y="573" width="135" height="87" rx="9" fill="#FFF" stroke="#D1D5DB"/><rect x="120" y="585" width="30" height="18" fill="none" stroke="#9CA3AF"/><line x1="123" y1="591" x2="147" y2="591" stroke="#9CA3AF" stroke-width="0.9"/><line x1="123" y1="597" x2="144" y2="597" stroke="#9CA3AF" stroke-width="0.9"/><text x="145.5" y="624" text-anchor="middle" font-size="13.5" font-weight="600" fill="#1F2937">元数据</text><text x="145.5" y="645" text-anchor="middle" font-size="12.0" fill="#6B7280">（景区/配置）</text></g>
  <g filter="url(#sh)"><rect x="225" y="573" width="135" height="87" rx="9" fill="#FFF" stroke="#D1D5DB"/><circle cx="292.5" cy="594" r="10.5" fill="none" stroke="#9CA3AF"/><line x1="286.5" y1="594" x2="298.5" y2="594" stroke="#9CA3AF" stroke-width="0.9"/><line x1="292.5" y1="588" x2="292.5" y2="600" stroke="#9CA3AF" stroke-width="0.9"/><text x="292.5" y="624" text-anchor="middle" font-size="13.5" font-weight="600" fill="#1F2937">候选传说</text><text x="292.5" y="645" text-anchor="middle" font-size="12.0" fill="#6B7280">title/source</text></g>
  <g filter="url(#sh)"><rect x="372" y="573" width="135" height="87" rx="9" fill="#FFF" stroke="#D1D5DB"/><rect x="420" y="585" width="42" height="18" fill="none" stroke="#9CA3AF"/><line x1="426" y1="591" x2="456" y2="591" stroke="#9CA3AF" stroke-width="0.75"/><line x1="426" y1="597" x2="453" y2="597" stroke="#9CA3AF" stroke-width="0.75"/><text x="439.5" y="624" text-anchor="middle" font-size="13.5" font-weight="600" fill="#1F2937">剧本</text><text x="439.5" y="645" text-anchor="middle" font-size="12.0" fill="#6B7280">acts/scenes</text></g>
  <g filter="url(#sh)"><rect x="519" y="573" width="135" height="87" rx="9" fill="#FFF" stroke="#D1D5DB"/><g transform="translate(567,582)"><rect x="0" y="0" width="9" height="24" fill="none" stroke="#9CA3AF" stroke-width="0.9"/><rect x="12" y="0" width="9" height="24" fill="none" stroke="#9CA3AF" stroke-width="0.9"/><rect x="24" y="0" width="9" height="24" fill="none" stroke="#9CA3AF" stroke-width="0.9"/><rect x="36" y="0" width="9" height="24" fill="none" stroke="#9CA3AF" stroke-width="0.9"/></g><text x="586.5" y="624" text-anchor="middle" font-size="13.5" font-weight="600" fill="#1F2937">分镜</text><text x="586.5" y="645" text-anchor="middle" font-size="12.0" fill="#6B7280">cells[]</text></g>
  <g filter="url(#sh)"><rect x="666" y="573" width="135" height="87" rx="9" fill="#FFF" stroke="#D1D5DB"/><circle cx="733.5" cy="591" r="6" fill="#9CA3AF"/><path d="M722,600 Q733.5,595 745,600 L745,604 L722,604 Z" fill="#9CA3AF"/><text x="733.5" y="624" text-anchor="middle" font-size="13.5" font-weight="600" fill="#1F2937">角色卡</text><text x="733.5" y="645" text-anchor="middle" font-size="12.0" fill="#6B7280">三视图</text></g>
  <g filter="url(#sh)"><rect x="813" y="573" width="135" height="87" rx="9" fill="#FFF" stroke="#D1D5DB"/><rect x="852" y="585" width="24" height="18" fill="none" stroke="#9CA3AF"/><circle cx="864" cy="590" r="2.5" fill="#9CA3AF"/><path d="M856,599 L860,592 L866,596 L874,588" fill="none" stroke="#9CA3AF" stroke-width="0.9"/><text x="880.5" y="624" text-anchor="middle" font-size="13.5" font-weight="600" fill="#1F2937">页面产物</text><text x="880.5" y="645" text-anchor="middle" font-size="12.0" fill="#6B7280">图片/音频</text></g>
  <g filter="url(#sh)"><rect x="960" y="573" width="135" height="87" rx="9" fill="#FFF" stroke="#D1D5DB"/><rect x="1002" y="585" width="36" height="18" fill="none" stroke="#9CA3AF"/><polygon points="1014,590 1024,594 1014,598" fill="#9CA3AF"/><text x="1027.5" y="624" text-anchor="middle" font-size="13.5" font-weight="600" fill="#1F2937">输出信息</text><text x="1027.5" y="645" text-anchor="middle" font-size="12.0" fill="#6B7280">（MP4）</text></g>

  <!-- 断点续跑机制: x=738 y=382 width=160 height=58 -->
  <g filter="url(#sh)"><rect x="1107" y="573" width="240" height="87" rx="9" fill="#ECFDF5" stroke="#86EFAC"/><rect x="1107" y="573" width="240" height="27" rx="9" fill="#16A34A"/><text x="1227" y="591" text-anchor="middle" font-size="15.0" font-weight="700" fill="#FFF">断点续跑机制</text><text x="1116" y="618" font-size="13.5" fill="#1F2937">· 中断后可接着跑，不重头来</text><text x="1116" y="636" font-size="13.5" fill="#1F2937">· 已完成步骤自动跳过</text><text x="1116" y="654" font-size="13.5" fill="#1F2937">· 进度落盘，写坏不丢数据</text></g>

  <!-- ===== PROVIDER LAYER (y:470-580) ===== -->
  <rect x="60" y="705" width="1305" height="165" rx="15" fill="#F5F3FF" stroke="#C4B5FD"/>
  <text x="81" y="735" font-size="19.5" font-weight="700" fill="#4C1D95">Provider 层（能力服务）· OpenAI 兼容协议</text>

  <g filter="url(#sh)"><rect x="78" y="756" width="270" height="102" rx="9" fill="#FFF" stroke="#C4B5FD"/><rect x="78" y="756" width="270" height="27" rx="9" fill="#7C3AED"/><text x="213" y="775.5" text-anchor="middle" font-size="16.5" font-weight="700" fill="#FFF">LLM Provider（文本生成）</text><text x="90" y="804" font-size="13.5" fill="#1F2937">· OpenAI 兼容协议</text><text x="90" y="825" font-size="13.5" fill="#1F2937">· 多端点可切换</text><text x="90" y="846" font-size="13.5" fill="#1F2937">· 按环节配置覆盖</text></g>
  <g filter="url(#sh)"><rect x="363" y="756" width="270" height="102" rx="9" fill="#FFF" stroke="#C4B5FD"/><rect x="363" y="756" width="270" height="27" rx="9" fill="#7C3AED"/><text x="498" y="775.5" text-anchor="middle" font-size="16.5" font-weight="700" fill="#FFF">Image Provider（图像生成）</text><text x="375" y="804" font-size="13.5" fill="#1F2937">· OpenAI 兼容协议</text><text x="375" y="825" font-size="13.5" fill="#1F2937">· 参考图注入</text><text x="375" y="846" font-size="13.5" fill="#1F2937">· 三视图一致性</text></g>
  <g filter="url(#sh)"><rect x="648" y="756" width="270" height="102" rx="9" fill="#FFF" stroke="#C4B5FD"/><rect x="648" y="756" width="270" height="27" rx="9" fill="#7C3AED"/><text x="783" y="775.5" text-anchor="middle" font-size="16.5" font-weight="700" fill="#FFF">TTS Provider（语音合成）</text><text x="660" y="804" font-size="13.5" fill="#1F2937">· OpenAI 兼容协议</text><text x="660" y="825" font-size="13.5" fill="#1F2937">· 整段优先 + 分句退化</text><text x="660" y="846" font-size="13.5" fill="#1F2937">· 三试取最长</text></g>
  <g filter="url(#sh)"><rect x="933" y="756" width="270" height="102" rx="9" fill="#FFF" stroke="#C4B5FD"/><rect x="933" y="756" width="270" height="27" rx="9" fill="#7C3AED"/><text x="1068" y="775.5" text-anchor="middle" font-size="16.5" font-weight="700" fill="#FFF">Music Provider（音乐生成）</text><text x="945" y="804" font-size="13.5" fill="#1F2937">· OpenAI 兼容协议</text><text x="945" y="825" font-size="13.5" fill="#1F2937">· 情绪标签驱动</text><text x="945" y="846" font-size="13.5" fill="#1F2937">· BGM 生成</text></g>
  <g filter="url(#sh)"><rect x="1218" y="756" width="129" height="102" rx="9" fill="#FFF7ED" stroke="#FDBA74" stroke-dasharray="4,2"/><text x="1282.5" y="783" text-anchor="middle" font-size="15.0" font-weight="700" fill="#7C2D12">🔒 guard</text><text x="1282.5" y="804" text-anchor="middle" font-size="12.0" fill="#1F2937">本地后端</text><text x="1282.5" y="825" text-anchor="middle" font-size="12.0" fill="#1F2937">全局单并发</text><text x="1282.5" y="846" text-anchor="middle" font-size="12.0" fill="#1F2937">避免抢卡</text></g>

  <!-- ===== MODEL SERVICE LAYER (y:600-710) ===== -->
  <rect x="60" y="900" width="1305" height="165" rx="15" fill="#ECFDF5" stroke="#86EFAC"/>
  <text x="81" y="930" font-size="19.5" font-weight="700" fill="#14532D">模型服务层（引擎模型）· 128GB 统一内存 · 分时加载</text>

  <g filter="url(#sh)"><rect x="78" y="951" width="225" height="102" rx="9" fill="#FFF" stroke="#86EFAC"/><rect x="78" y="951" width="225" height="27" rx="9" fill="#16A34A"/><text x="190.5" y="970.5" text-anchor="middle" font-size="16.5" font-weight="700" fill="#FFF">Hermes Agent</text><text x="90" y="999" font-size="13.5" fill="#1F2937">（编剧/导演 Skill）</text><text x="90" y="1020" font-size="13.5" fill="#1F2937">· 底层：step-3.7-flash</text><text x="90" y="1041" font-size="13.5" fill="#1F2937">· 127.0.0.1:8642</text></g>
  <g filter="url(#sh)"><rect x="318" y="951" width="225" height="102" rx="9" fill="#FFF" stroke="#86EFAC"/><rect x="318" y="951" width="225" height="27" rx="9" fill="#16A34A"/><text x="430.5" y="970.5" text-anchor="middle" font-size="16.5" font-weight="700" fill="#FFF">tu-zi 云端</text><text x="330" y="999" font-size="13.5" fill="#1F2937">（画图 API 网关）</text><text x="330" y="1020" font-size="13.5" fill="#1F2937">· 模型：gpt-image-2</text><text x="330" y="1041" font-size="13.5" fill="#1F2937">· api.tu-zi.com</text></g>
  <g filter="url(#sh)"><rect x="558" y="951" width="225" height="102" rx="9" fill="#FFF" stroke="#86EFAC"/><rect x="558" y="951" width="225" height="27" rx="9" fill="#16A34A"/><text x="670.5" y="970.5" text-anchor="middle" font-size="16.5" font-weight="700" fill="#FFF">Qwen-TTS</text><text x="570" y="999" font-size="13.5" fill="#1F2937">（配音模型）</text><text x="570" y="1020" font-size="13.5" fill="#1F2937">· 本地服务 :8090</text><text x="570" y="1041" font-size="13.5" fill="#1F2937">· 进程名 shanhai-tts</text></g>
  <g filter="url(#sh)"><rect x="798" y="951" width="225" height="102" rx="9" fill="#FFF" stroke="#86EFAC"/><rect x="798" y="951" width="225" height="27" rx="9" fill="#16A34A"/><text x="910.5" y="970.5" text-anchor="middle" font-size="16.5" font-weight="700" fill="#FFF">ACE-STEP 1.5 XL</text><text x="810" y="999" font-size="13.5" fill="#1F2937">（配乐模型）</text><text x="810" y="1020" font-size="13.5" fill="#1F2937">· 本地服务 :8092</text><text x="810" y="1041" font-size="13.5" fill="#1F2937">· 进程名 shanhai-music</text></g>
  <g filter="url(#sh)"><rect x="1038" y="951" width="225" height="102" rx="9" fill="#FFF" stroke="#86EFAC"/><rect x="1038" y="951" width="225" height="27" rx="9" fill="#16A34A"/><text x="1150.5" y="970.5" text-anchor="middle" font-size="16.5" font-weight="700" fill="#FFF">ComfyUI</text><text x="1050" y="999" font-size="13.5" fill="#1F2937">（本地画图备选）</text><text x="1050" y="1020" font-size="13.5" fill="#1F2937">· Qwen-Image-Edit</text><text x="1050" y="1041" font-size="13.5" fill="#1F2937">· 云端不可用时用</text></g>
  <g filter="url(#sh)"><rect x="1278" y="951" width="69" height="102" rx="9" fill="#FFF" stroke="#86EFAC"/><text x="1312.5" y="982.5" text-anchor="middle" font-size="13.5" font-weight="700" fill="#14532D">备选</text><text x="1312.5" y="1005" text-anchor="middle" font-size="12.0" fill="#1F2937">Stepfun</text><text x="1312.5" y="1026" text-anchor="middle" font-size="12.0" fill="#1F2937">云端</text><text x="1312.5" y="1041" text-anchor="middle" font-size="12.0" fill="#1F2937">文本</text></g>

  <!-- ===== OUTPUT LAYER (y:730-840) ===== -->
  <rect x="60" y="1095" width="1305" height="165" rx="15" fill="#FFF7ED" stroke="#FDBA74"/>
  <text x="81" y="1125" font-size="19.5" font-weight="700" fill="#7C2D12">输出层 · FFmpeg 合成器（ComposerAgent）</text>

  <g filter="url(#sh)"><rect x="78" y="1146" width="102" height="90" rx="9" fill="#FFF" stroke="#FDBA74"/><rect x="102" y="1161" width="54" height="36" fill="none" stroke="#EA580C" stroke-width="1.5"/><line x1="111" y1="1173" x2="147" y2="1173" stroke="#EA580C" stroke-width="0.9"/><line x1="111" y1="1182" x2="141" y2="1182" stroke="#EA580C" stroke-width="0.9"/><line x1="111" y1="1191" x2="135" y2="1191" stroke="#EA580C" stroke-width="0.9"/><text x="129" y="1242" text-anchor="middle" font-size="12.0" fill="#7C2D12">片头卡</text></g>
  <text x="195" y="1185" font-size="15.0" fill="#6B7280">→ 逐页（Ken Burns 缩放 + 转场）</text>
  <text x="195" y="1209" font-size="15.0" fill="#6B7280">→ 片尾卡 + 字幕/水印叠加</text>

  <g filter="url(#sh)"><rect x="525" y="1146" width="255" height="90" rx="9" fill="#FFF" stroke="#FDBA74"/><text x="652.5" y="1179" text-anchor="middle" font-size="15.0" font-weight="600" fill="#7C2D12">音频混合</text><text x="652.5" y="1206" text-anchor="middle" font-size="13.5" fill="#1F2937">（解说 + BGM）</text></g>
  <line x1="780" y1="1191" x2="810" y2="1191" stroke="#9CA3AF" marker-end="url(#ag)"/>
  <g filter="url(#sh)"><rect x="810" y="1146" width="195" height="90" rx="9" fill="#FFF" stroke="#FDBA74"/><text x="907.5" y="1179" text-anchor="middle" font-size="15.0" font-weight="600" fill="#7C2D12">响度归一化</text><text x="907.5" y="1206" text-anchor="middle" font-size="13.5" fill="#1F2937">loudnorm</text></g>
  <line x1="1005" y1="1191" x2="1035" y2="1191" stroke="#9CA3AF" marker-end="url(#ag)"/>
  <g filter="url(#sh)"><rect x="1035" y="1146" width="195" height="90" rx="9" fill="#EA580C" stroke="#FB923C"/><text x="1132.5" y="1179" text-anchor="middle" font-size="15.0" font-weight="700" fill="#FFF">MP4 输出</text><text x="1132.5" y="1206" text-anchor="middle" font-size="13.5" fill="#FED7AA">1080p</text></g>

  <g filter="url(#sh)"><circle cx="1305" cy="1191" r="30" fill="#EA580C"/><path d="M1295,1179 L1320,1191 L1295,1203 Z" fill="#FFF"/></g>
  <text x="1305" y="1254" text-anchor="middle" font-size="13.5" font-weight="600" fill="#7C2D12">有声连环画 MP4 成片</text>

  <!-- ===== DEPLOYMENT (y:860-970) ===== -->
  <rect x="60" y="1290" width="1305" height="165" rx="15" fill="#ECFEFF" stroke="#A5F3FC"/>
  <text x="81" y="1320" font-size="19.5" font-weight="700" fill="#155E75">部署环境</text>

  <g filter="url(#sh)"><rect x="78" y="1341" width="630" height="102" rx="9" fill="#FFF" stroke="#86EFAC"/><rect x="78" y="1341" width="630" height="27" rx="9" fill="#16A34A"/><text x="93" y="1360.5" font-size="16.5" font-weight="700" fill="#FFF">NVIDIA DGX Spark</text><text x="693" y="1360.5" text-anchor="end" font-size="12.0" fill="#D1FAE5">（本地）</text><text x="90" y="1392" font-size="13.5" fill="#1F2937">· 128GB 统一内存</text><text x="330" y="1392" font-size="13.5" fill="#1F2937">· 分时加载多模型无法同时驻留</text><text x="90" y="1416" font-size="13.5" fill="#1F2937">· 本地服务 shim + 全局单并发锁</text><text x="420" y="1416" font-size="13.5" fill="#1F2937">· 主进程 FastAPI+Typer · :8080</text></g>
  <g filter="url(#sh)"><rect x="723" y="1341" width="624" height="102" rx="9" fill="#FFF" stroke="#A5F3FC" stroke-dasharray="4,2"/><rect x="723" y="1341" width="624" height="27" rx="9" fill="#0891B2"/><text x="738" y="1360.5" font-size="16.5" font-weight="700" fill="#FFF">云端服务（tu-zi 画图 API）</text><text x="1332" y="1360.5" text-anchor="end" font-size="12.0" fill="#CFFAFE">（可选）</text><text x="735" y="1392" font-size="13.5" fill="#1F2937">· 第三方图像生成接口</text><text x="735" y="1416" font-size="13.5" fill="#1F2937">· 本地画图不可用时可走云端</text></g>

  <!-- ===== INTER-LAYER CONNECTIONS ===== -->
  <!-- 用户层 → 编排层：垂直接到黄底上沿，避免斜线穿过 S 卡片 -->
  <line x1="345" y1="273" x2="345" y2="315" stroke="#9CA3AF" stroke-width="1.5" marker-end="url(#ag)"/>
  <line x1="643.5" y1="273" x2="643.5" y2="315" stroke="#9CA3AF" stroke-width="1.5" stroke-dasharray="3,2" marker-end="url(#ag)"/>
  <line x1="942" y1="273" x2="942" y2="315" stroke="#9CA3AF" stroke-width="1.5" stroke-dasharray="3,2" marker-end="url(#ag)"/>
  <line x1="1240.5" y1="273" x2="1240.5" y2="315" stroke="#9CA3AF" stroke-width="1.5" stroke-dasharray="3,2" marker-end="url(#ag)"/>

  <line x1="342" y1="468" x2="292.5" y2="573" stroke="#9CA3AF" stroke-width="1.2" stroke-dasharray="3,2" marker-end="url(#ag)"/>
  <line x1="702" y1="468" x2="733.5" y2="573" stroke="#9CA3AF" stroke-width="1.2" stroke-dasharray="3,2" marker-end="url(#ag)"/>
  <line x1="1254" y1="468" x2="1027.5" y2="573" stroke="#9CA3AF" stroke-width="1.2" stroke-dasharray="3,2" marker-end="url(#ag)"/>

  <!-- Provider 调用：自上而下接到 Provider 卡片上沿，不穿卡片 -->
  <line x1="213" y1="690" x2="213" y2="756" stroke="#7C3AED" stroke-width="1.2" stroke-dasharray="3,2" marker-end="url(#ap)"/>
  <line x1="498" y1="690" x2="498" y2="756" stroke="#7C3AED" stroke-width="1.2" stroke-dasharray="3,2" marker-end="url(#ap)"/>
  <line x1="783" y1="690" x2="783" y2="756" stroke="#7C3AED" stroke-width="1.2" stroke-dasharray="3,2" marker-end="url(#ap)"/>
  <line x1="1068" y1="690" x2="1068" y2="756" stroke="#7C3AED" stroke-width="1.2" stroke-dasharray="3,2" marker-end="url(#ap)"/>

  <!-- 模型服务调用：Provider 下沿 → 对应模型上沿（层间隙折线，不穿卡片） -->
  <path d="M213,858 V900 H190.5 V951" fill="none" stroke="#16A34A" stroke-width="1.2" marker-end="url(#ag2)"/>
  <path d="M498,858 V900 H430.5 V951" fill="none" stroke="#16A34A" stroke-width="1.2" marker-end="url(#ag2)"/>
  <path d="M783,858 V900 H670.5 V951" fill="none" stroke="#16A34A" stroke-width="1.2" marker-end="url(#ag2)"/>
  <path d="M1068,858 V900 H910.5 V951" fill="none" stroke="#16A34A" stroke-width="1.2" marker-end="url(#ag2)"/>

  <line x1="1254" y1="468" x2="1254" y2="1146" stroke="#EA580C" stroke-width="1.8" marker-end="url(#ao)"/>

  <!-- 部署运行时：模型下沿垂直接到部署层上沿 -->
  <line x1="190.5" y1="1053" x2="190.5" y2="1290" stroke="#0891B2" stroke-width="1.2" stroke-dasharray="3,2" marker-end="url(#ag)"/>
  <line x1="670.5" y1="1053" x2="670.5" y2="1290" stroke="#0891B2" stroke-width="1.2" stroke-dasharray="3,2" marker-end="url(#ag)"/>
  <line x1="910.5" y1="1053" x2="910.5" y2="1290" stroke="#0891B2" stroke-width="1.2" stroke-dasharray="3,2" marker-end="url(#ag)"/>
  <line x1="1150.5" y1="1053" x2="1150.5" y2="1290" stroke="#0891B2" stroke-width="1.2" stroke-dasharray="3,2" marker-end="url(#ag)"/>

  <!-- ===== LEGEND ===== -->
  <g transform="translate(1380,705)">
    <rect x="0" y="0" width="330" height="495" rx="12" fill="#FAFAFA" stroke="#E5E7EB"/>
    <text x="15" y="30" font-size="19.5" font-weight="700" fill="#1F2937">图例 Legend</text>

    <text x="15" y="66" font-size="16.5" font-weight="600" fill="#1F2937">分层颜色</text>
    <rect x="15" y="78" width="24" height="18" fill="#DBEAFE" stroke="#93C5FD"/><text x="48" y="93" font-size="15.0" fill="#1F2937">用户层（前端）</text>
    <rect x="15" y="105" width="24" height="18" fill="#FEF9C3" stroke="#FDE68A"/><text x="48" y="120" font-size="15.0" fill="#1F2937">编排层（流水线）</text>
    <rect x="15" y="132" width="24" height="18" fill="#F3F4F6" stroke="#D1D5DB"/><text x="48" y="147" font-size="15.0" fill="#1F2937">Project 数据层</text>
    <rect x="15" y="159" width="24" height="18" fill="#F5F3FF" stroke="#C4B5FD"/><text x="48" y="174" font-size="15.0" fill="#1F2937">Provider 层（能力服务）</text>
    <rect x="15" y="186" width="24" height="18" fill="#ECFDF5" stroke="#86EFAC"/><text x="48" y="201" font-size="15.0" fill="#1F2937">模型服务层（引擎模型）</text>
    <rect x="15" y="213" width="24" height="18" fill="#FFF7ED" stroke="#FDBA74"/><text x="48" y="228" font-size="15.0" fill="#1F2937">输出层（合成输出）</text>
    <rect x="15" y="240" width="24" height="18" fill="#ECFEFF" stroke="#A5F3FC"/><text x="48" y="255" font-size="15.0" fill="#1F2937">部署环境</text>

    <text x="15" y="291" font-size="16.5" font-weight="600" fill="#1F2937">连线类型</text>
    <line x1="15" y1="312" x2="45" y2="312" stroke="#9CA3AF" stroke-width="1.5" marker-end="url(#ag)"/><text x="54" y="318" font-size="15.0" fill="#1F2937">数据流</text>
    <line x1="15" y1="339" x2="45" y2="339" stroke="#9CA3AF" stroke-width="1.5" stroke-dasharray="3,2" marker-end="url(#ag)"/><text x="54" y="345" font-size="15.0" fill="#1F2937">控制流 / 配置覆盖</text>
    <line x1="15" y1="366" x2="45" y2="366" stroke="#7C3AED" stroke-width="1.5" stroke-dasharray="3,2" marker-end="url(#ap)"/><text x="54" y="372" font-size="15.0" fill="#1F2937">Provider 调用</text>
    <line x1="15" y1="393" x2="45" y2="393" stroke="#16A34A" stroke-width="1.5" marker-end="url(#ag2)"/><text x="54" y="399" font-size="15.0" fill="#1F2937">模型服务调用</text>
    <line x1="15" y1="420" x2="45" y2="420" stroke="#EA580C" stroke-width="1.8" marker-end="url(#ao)"/><text x="54" y="426" font-size="15.0" fill="#1F2937">S6 合成输出</text>
    <line x1="15" y1="447" x2="45" y2="447" stroke="#0891B2" stroke-width="1.5" stroke-dasharray="3,2" marker-end="url(#ag)"/><text x="54" y="453" font-size="15.0" fill="#1F2937">部署运行时</text>
  </g>

  <text x="885" y="1495" text-anchor="middle" font-size="15.0" fill="#9CA3AF">WanderInk · 漫游墨绘 · 第二届 NVIDIA DGX Spark 黑客松 · 2026</text>
</svg>
